<svg xmlns="http://www.w3.org/2000/svg" viewBox="0 0 64 64" role="img" aria-label="Blue PMS">
  <defs>
    <linearGradient id="g" x1="0" y1="0" x2="1" y2="1">
      <stop offset="0" stop-color="#3b82f6"></stop>
      <stop offset="1" stop-color="#06b6d4"></stop>
    </linearGradient>
  </defs>
  <rect width="64" height="64" rx="14" ry="14" fill="url(#g)"></rect>
  <!-- Geometric wave + B monogram -->
  <path fill="white" fill-opacity=".94" d="M18 20c5 0 9 6 14 6s9-6 14-6c0 0 0 0 0 0v6c-5 0-9 6-14 6s-9-6-14-6v-6z"></path>
  <path fill="white" d="M22 46V18h10.5c4.6 0 7.5 2.6 7.5 6.5 0 3-1.8 5.2-4.8 6 3.6.7 5.8 3 5.8 6.5 0 4.6-3.5 8.5-9.7 8.5H22zm6-16h4.2c2.3 0 3.8-1.2 3.8-3.2S34.5 24 32.2 24H28v6zm0 5v7h5c2.9 0 4.8-1.5 4.8-3.7S36 35 33 35h-5z"></path>
</svg>
